<svg xmlns="http://www.w3.org/2000/svg" width="32" height="32" viewBox="0 0 32 32"><defs><linearGradient id="cyl" x1="0" x2="1" y1="0" y2="0"><stop offset="0" stop-color="#b3c0cd"/><stop offset="0.55" stop-color="#dfe6ee"/><stop offset="1" stop-color="#8c9db0"/></linearGradient></defs><path d="M4,4 L10,4 M4,4 L4,10" fill="none" stroke="#343a40" stroke-width="1.8" stroke-linejoin="round" stroke-linecap="round" /><path d="M28,4 L22,4 M28,4 L28,10" fill="none" stroke="#343a40" stroke-width="1.8" stroke-linejoin="round" stroke-linecap="round" /><path d="M4,28 L10,28 M4,28 L4,22" fill="none" stroke="#343a40" stroke-width="1.8" stroke-linejoin="round" stroke-linecap="round" /><path d="M28,28 L22,28 M28,28 L28,22" fill="none" stroke="#343a40" stroke-width="1.8" stroke-linejoin="round" stroke-linecap="round" /><polygon points="11.32,19.25 16.00,21.95 16.00,17.45 11.32,14.75" fill="#b3c0cd" stroke="#4b5866" stroke-width="0.9" stroke-linejoin="round" /><polygon points="20.68,19.25 16.00,21.95 16.00,17.45 20.68,14.75" fill="#8c9db0" stroke="#4b5866" stroke-width="0.9" stroke-linejoin="round" /><polygon points="16.00,12.05 20.68,14.75 16.00,17.45 11.32,14.75" fill="#dfe6ee" stroke="#4b5866" stroke-width="0.9" stroke-linejoin="round" /></svg>
