<svg xmlns="http://www.w3.org/2000/svg" width="32" height="32" viewBox="0 0 32 32"><defs><linearGradient id="cyl" x1="0" x2="1" y1="0" y2="0"><stop offset="0" stop-color="#b3c0cd"/><stop offset="0.55" stop-color="#dfe6ee"/><stop offset="1" stop-color="#8c9db0"/></linearGradient></defs><polygon points="3.80,11.50 9.00,14.50 9.00,9.50 3.80,6.50" fill="#b3c0cd" stroke="#4b5866" stroke-width="0.9" stroke-linejoin="round" /><polygon points="14.20,11.50 9.00,14.50 9.00,9.50 14.20,6.50" fill="#8c9db0" stroke="#4b5866" stroke-width="0.9" stroke-linejoin="round" /><polygon points="9.00,3.50 14.20,6.50 9.00,9.50 3.80,6.50" fill="#dfe6ee" stroke="#4b5866" stroke-width="0.9" stroke-linejoin="round" /><polygon points="17.80,11.50 23.00,14.50 23.00,9.50 17.80,6.50" fill="#b3c0cd" stroke="#4b5866" stroke-width="0.9" stroke-linejoin="round" /><polygon points="28.20,11.50 23.00,14.50 23.00,9.50 28.20,6.50" fill="#8c9db0" stroke="#4b5866" stroke-width="0.9" stroke-linejoin="round" /><polygon points="23.00,3.50 28.20,6.50 23.00,9.50 17.80,6.50" fill="#dfe6ee" stroke="#4b5866" stroke-width="0.9" stroke-linejoin="round" /><polygon points="3.80,25.50 9.00,28.50 9.00,23.50 3.80,20.50" fill="#b3c0cd" stroke="#4b5866" stroke-width="0.9" stroke-linejoin="round" /><polygon points="14.20,25.50 9.00,28.50 9.00,23.50 14.20,20.50" fill="#8c9db0" stroke="#4b5866" stroke-width="0.9" stroke-linejoin="round" /><polygon points="9.00,17.50 14.20,20.50 9.00,23.50 3.80,20.50" fill="#dfe6ee" stroke="#4b5866" stroke-width="0.9" stroke-linejoin="round" /><polygon points="17.80,25.50 23.00,28.50 23.00,23.50 17.80,20.50" fill="#b3c0cd" stroke="#4b5866" stroke-width="0.9" stroke-linejoin="round" /><polygon points="28.20,25.50 23.00,28.50 23.00,23.50 28.20,20.50" fill="#8c9db0" stroke="#4b5866" stroke-width="0.9" stroke-linejoin="round" /><polygon points="23.00,17.50 28.20,20.50 23.00,23.50 17.80,20.50" fill="#dfe6ee" stroke="#4b5866" stroke-width="0.9" stroke-linejoin="round" /><line x1="9.00" y1="16.00" x2="24.60" y2="16.00" stroke="#1c7ed6" stroke-width="1.2" stroke-linecap="round" /><polygon points="27.00,16.00 24.30,17.30 24.30,14.70" fill="#1c7ed6" stroke="#1c7ed6" stroke-width="0.6" stroke-linejoin="round" /></svg>
